<mxfile host="app.diagrams.net" modified="2024-03-18T17:59:27.485Z" agent="Mozilla/5.0 (Windows NT 10.0; Win64; x64) AppleWebKit/537.36 (KHTML, like Gecko) Chrome/121.0.0.0 Safari/537.36 OPR/107.0.0.0" version="22.1.21" etag="BPbGMW_KKkIkO5hajSlt" type="github">
  <diagram name="Strona-1" id="RPpEDkoEVR56GqNdBBPE">
    <mxGraphModel>
      <root>
        <mxCell id="0" />
        <mxCell id="1" parent="0" />
      </root>
    </mxGraphModel>
  </diagram>
</mxfile>
